name C:\Users\u0150099\Documents\master_thesis\3dpredictsim\Results\debug\Fal_s1_mtjc2_sc_cspx10_oy2_TrackAnkleQSubtQ_ATx70_MTc2_MTPm_k1_d01_MTJm_nl_MG_exp5_table_d01_PF_Natali2010_x3_ls146_ig21_mtptau.mot
datacolumns 128
datarows 4
range 0.56230586 0.59604421
endheader
time	pelvis_tilt	pelvis_list	pelvis_rotation	pelvis_tx	pelvis_ty	pelvis_tz	hip_flexion_l	hip_adduction_l	hip_rotation_l	hip_flexion_r	hip_adduction_r	hip_rotation_r	knee_angle_l	knee_angle_r	ankle_angle_l	ankle_angle_r	subtalar_angle_l	subtalar_angle_r	mtj_angle_l	mtj_angle_r	mtp_angle_l	mtp_angle_r	lumbar_extension	lumbar_bending	lumbar_rotation	arm_flex_l	arm_add_l	arm_rot_l	arm_flex_r	arm_add_r	arm_rot_r	elbow_flex_l	elbow_flex_r	pro_sup_l	pro_sup_r	glut_med1_l/activation	glut_med2_l/activation	glut_med3_l/activation	glut_min1_l/activation	glut_min2_l/activation	glut_min3_l/activation	semimem_l/activation	semiten_l/activation	bifemlh_l/activation	bifemsh_l/activation	sar_l/activation	add_long_l/activation	add_brev_l/activation	add_mag1_l/activation	add_mag2_l/activation	add_mag3_l/activation	tfl_l/activation	pect_l/activation	grac_l/activation	glut_max1_l/activation	glut_max2_l/activation	glut_max3_l/activation	iliacus_l/activation	psoas_l/activation	quad_fem_l/activation	gem_l/activation	peri_l/activation	rect_fem_l/activation	vas_med_l/activation	vas_int_l/activation	vas_lat_l/activation	med_gas_l/activation	lat_gas_l/activation	soleus_l/activation	tib_post_l/activation	flex_dig_l/activation	flex_hal_l/activation	tib_ant_l/activation	per_brev_l/activation	per_long_l/activation	per_tert_l/activation	ext_dig_l/activation	ext_hal_l/activation	ercspn_l/activation	intobl_l/activation	extobl_l/activation	glut_med1_r/activation	glut_med2_r/activation	glut_med3_r/activation	glut_min1_r/activation	glut_min2_r/activation	glut_min3_r/activation	semimem_r/activation	semiten_r/activation	bifemlh_r/activation	bifemsh_r/activation	sar_r/activation	add_long_r/activation	add_brev_r/activation	add_mag1_r/activation	add_mag2_r/activation	add_mag3_r/activation	tfl_r/activation	pect_r/activation	grac_r/activation	glut_max1_r/activation	glut_max2_r/activation	glut_max3_r/activation	iliacus_r/activation	psoas_r/activation	quad_fem_r/activation	gem_r/activation	peri_r/activation	rect_fem_r/activation	vas_med_r/activation	vas_int_r/activation	vas_lat_r/activation	med_gas_r/activation	lat_gas_r/activation	soleus_r/activation	tib_post_r/activation	flex_dig_r/activation	flex_hal_r/activation	tib_ant_r/activation	per_brev_r/activation	per_long_r/activation	per_tert_r/activation	ext_dig_r/activation	ext_hal_r/activation	ercspn_r/activation	intobl_r/activation	extobl_r/activation	
          0.56230586	         -2.91861988	          1.35291878	         -4.60955698	          0.74786679	          0.90493355	          0.00405870	         27.79560350	          2.45953677	         -2.32852744	        -18.87279681	          1.07479291	          8.22820465	         -5.83212763	         -8.54021764	          1.69321695	          5.42199559	         -0.04900839	          5.61540098	          0.16713023	         -1.45228887	          1.61467045	         16.99200944	         -3.23112511	         -0.15174899	          1.92272794	         -5.73796844	        -13.47398754	          6.74275976	          3.94406820	        -13.97746930	         19.36402867	         23.80623118	         35.97246872	         86.51662706	         86.51662706	          0.07048852	          0.05000009	          0.05937169	          0.05000004	          0.05000007	          0.05000019	          0.22933775	          0.07050015	          0.28389271	          0.06972884	          0.05000026	          0.14126219	          0.15685718	          0.12610813	          0.14383806	          0.11537040	          0.05000047	          0.05053989	          0.14750034	          0.05937175	          0.05937191	          0.08702272	          0.05000003	          0.05000003	          0.15309434	          0.05000016	          0.05000007	          0.05000003	          0.05000066	          0.05000064	          0.05000052	          0.08407129	          0.05000011	          0.05000000	          0.06451476	          0.05000099	          0.05000041	          0.26714049	          0.08604622	          0.12242555	          0.08134370	          0.54043437	          0.16652505	          0.05329262	          0.11223104	          0.11242425	          0.33359061	          0.09940535	          0.05937181	          0.47216035	          0.26277731	          0.11805346	          0.05000043	          0.05000005	          0.05000004	          0.08591308	          0.11804430	          0.05000001	          0.05000002	          0.05000004	          0.05000015	          0.05000011	          0.70302272	          0.05000010	          0.05000010	          0.05001035	          0.05000052	          0.05000024	          0.39632968	          0.78320352	          0.05000003	          0.05000020	          0.05000039	          0.36663547	          0.05088458	          0.05470064	          0.05000053	          0.43876656	          0.50715151	          0.33532380	          0.44744502	          0.41437098	          0.52453695	          0.05000000	          0.06481206	          0.27742613	          0.05000001	          0.05000000	          0.10863071	          0.05000000	          0.05000000	          0.05000001	
          0.57355197	         -2.92642762	          1.50229969	         -4.86735302	          0.76575288	          0.90426370	          0.00378098	         27.32485633	          2.91970694	         -2.24735287	        -18.92171521	          0.70632213	          8.15516885	         -5.86266926	        -10.14740667	          1.18195986	          4.36093902	         -0.28990108	          5.89726150	          0.52158727	         -2.75855695	          0.62844720	         20.37482899	         -3.06881686	         -0.39807938	          2.03786007	         -6.52095194	        -13.45275847	          6.48772054	          3.50505408	        -13.92429254	         19.24284878	         23.27451496	         37.33019399	         86.51662706	         86.51662706	          0.05937175	          0.05937172	          0.05000003	          0.05937177	          0.05937176	          0.05013711	          0.19744119	          0.05937181	          0.24401906	          0.05937176	          0.05000021	          0.15097486	          0.18081370	          0.10620222	          0.16336188	          0.13554143	          0.05000003	          0.08381119	          0.12421779	          0.05000009	          0.05000016	          0.15585033	          0.05937176	          0.05000484	          0.29171273	          0.19780421	          0.09657148	          0.05000001	          0.05000003	          0.05000003	          0.05000003	          0.08357314	          0.05487720	          0.05000000	          0.07680955	          0.05263809	          0.08371395	          0.27987630	          0.09531618	          0.16430075	          0.12414828	          0.58212309	          0.21717738	          0.05000000	          0.09451550	          0.09467822	          0.28093374	          0.08371434	          0.05000005	          0.39763042	          0.22129823	          0.09941887	          0.05000048	          0.05000005	          0.05000003	          0.07235181	          0.09941118	          0.08261788	          0.05000019	          0.05000014	          0.05000034	          0.05000021	          0.67054540	          0.05937323	          0.05000013	          0.05000018	          0.05000014	          0.05000015	          0.33376951	          0.71527442	          0.05000001	          0.05000006	          0.05000002	          0.32813654	          0.08577645	          0.09014700	          0.07922840	          0.36950777	          0.42709824	          0.28239332	          0.40322732	          0.42030400	          0.45575729	          0.05000000	          0.06446592	          0.26304169	          0.05000001	          0.05000000	          0.09148348	          0.05000000	          0.05000003	          0.08193203	
          0.58479809	         -2.93004520	          1.66647912	         -5.09821035	          0.78396957	          0.90369666	          0.00347458	         26.86891064	          3.34538656	         -2.15047339	        -18.87547845	          0.32361802	          8.05222132	         -6.59361442	        -11.85589288	          0.19983180	          3.00293690	         -0.57597949	          6.15578420	          0.83996173	         -4.18461540	         -0.29664491	         24.06125664	         -2.89144267	         -0.66351944	          2.14572257	         -7.31331090	        -13.45347700	          6.46759385	          2.97009542	        -13.87417305	         19.06227902	         22.72910582	         38.72547776	         86.51662706	         86.51662706	          0.05000000	          0.05000001	          0.12532896	          0.05000001	          0.05000001	          0.05000002	          0.16627534	          0.05000004	          0.20550094	          0.05000000	          0.05000021	          0.12714370	          0.29546452	          0.30348803	          0.19864450	          0.16925806	          0.05000037	          0.07067073	          0.10461020	          0.10494034	          0.13465262	          0.17047046	          0.05000004	          0.06861309	          0.48025829	          0.16658106	          0.08132780	          0.05937361	          0.06949123	          0.06480153	          0.05937223	          0.07050011	          0.07050005	          0.06461044	          0.06468526	          0.05957796	          0.07049999	          0.37079936	          0.18765157	          0.13908716	          0.40452356	          0.56906110	          0.18289619	          0.05000000	          0.07959634	          0.07973337	          0.23658868	          0.07050013	          0.05937175	          0.33486494	          0.18636657	          0.08372572	          0.05000067	          0.05000014	          0.05000061	          0.06093117	          0.08371926	          0.17682990	          0.15226472	          0.05937196	          0.05937187	          0.05937197	          0.56470363	          0.05000135	          0.05000082	          0.05935847	          0.05937161	          0.05937172	          0.28108439	          0.63405013	          0.05937175	          0.05937175	          0.05000050	          0.27634058	          0.11455173	          0.11759753	          0.10349792	          0.31118139	          0.35968129	          0.23781786	          0.33957837	          0.35395960	          0.38381659	          0.05000000	          0.05429006	          0.23632005	          0.05000000	          0.05000000	          0.07704292	          0.05922915	          0.06072699	          0.07050013	
          0.59604421	         -2.93012055	          1.86980050	         -5.30200212	          0.80238898	          0.90326265	          0.00318411	         26.38293890	          3.69264284	         -1.99162317	        -18.69527130	         -0.08041630	          7.91590108	         -7.63271910	        -13.70605762	         -1.00816522	          1.30002650	         -0.88536164	          6.33795501	          1.26110815	         -5.67681018	         -0.99596753	         27.96576435	         -2.70492338	         -0.97618139	          2.24229113	         -8.08702213	        -13.48373444	          6.66724648	          2.36323618	        -13.81745402	         18.84813222	         22.14536925	         40.14390090	         86.51662706	         86.51662706	          0.36018074	          0.36280945	          0.42127430	          0.42226311	          0.29790445	          0.26795455	          0.14057325	          0.14898876	          0.17438936	          0.08933587	          0.05937183	          0.10707423	          0.24882581	          0.25558282	          0.16728873	          0.21330388	          0.05000008	          0.05951564	          0.18020813	          0.26965326	          0.23025059	          0.19746820	          0.05937176	          0.05937173	          0.40445009	          0.14028647	          0.13092678	          0.05000156	          0.05852213	          0.05457269	          0.05000040	          0.05937175	          0.05937170	          0.05441175	          0.05936987	          0.05017366	          0.05937166	          0.49708030	          0.15803100	          0.11713262	          0.44235515	          0.75371274	          0.53301445	          0.07224321	          0.08372096	          0.06714755	          0.21744874	          0.05937177	          0.05000000	          0.32692112	          0.15694884	          0.07050972	          0.05000051	          0.05000005	          0.05000002	          0.05937169	          0.07050431	          0.14891764	          0.12822995	          0.05000019	          0.05000019	          0.05000021	          0.65565642	          0.07048570	          0.05000010	          0.05000013	          0.05000008	          0.05000006	          0.23671569	          0.64212044	          0.05000001	          0.05000004	          0.05000000	          0.23272054	          0.09646988	          0.09903490	          0.08716090	          0.26206177	          0.30290601	          0.20027859	          0.28597632	          0.29808750	          0.32323161	          0.07683724	          0.10918711	          0.19901736	          0.30135232	          0.05000000	          0.06488179	          0.09520089	          0.05114130	          0.05937177	
